<svg xmlns="http://www.w3.org/2000/svg" x="0px" y="0px" width="70" height="75" viewBox="0,0,256,256" style="fill: #000000">
<g fill="none" fill-rule="nonzero" stroke="none" stroke-width="none" stroke-linecap="none" stroke-linejoin="none" stroke-miterlimit="10" stroke-dasharray="" stroke-dashoffset="0" font-family="none" font-weight="none" font-size="none" text-anchor="none" style="mix-blend-mode: normal">
    <g transform="scale(2.56,2.56)">
    <path d="M53.5,97.5c-7.225,0 -14.025,-3.188 -18.65,-8.638l-15.71,-0.873c-2.267,-0.125 -4.267,-1.392 -5.351,-3.386c-1.084,-1.989 -1.06,-4.357 0.067,-6.329l0.066,-0.116l0.257,-2.743c-2.657,-0.886 -6.179,-1.113 -6.179,-3.915c0,-2.617 2.181,-5.002 4.523,-7.135c-3.487,-2.732 -3.339,-5.54 -3.601,-5.635c-2.213,-0.587 -6.022,-0.229 -6.657,-2.427c-0.655,-2.285 -0.026,-4.733 1.64,-6.399c4.974,-4.974 10.061,-7.85 16.723,-8.4c-3.903,-5.051 -7.859,-9.62 -7.93,-9.672c-1.906,-1.363 -3.927,-2.737 -3.652,-5.087c0.274,-2.349 1.805,-4.365 3.993,-5.261c5.221,-2.135 10.244,-3.217 14.932,-3.217c3.747,0 6.989,0.667 9.768,1.707c-0.227,-0.864 -0.395,-1.389 -0.416,-1.457c-0.779,-2.338 -0.12,-4.991 1.693,-6.719c1.209,-1.157 2.804,-1.797 4.485,-1.797c0.804,0 1.591,0.147 2.341,0.437c0.6,0.23 11.384,16.586 19.093,21.108c2.13,0.921 4.672,2.317 6.967,4.365c2.61,-1.078 6.088,-1.91 10.6,-1.91c2.638,0 1.759,2.62 2.77,5.056c0.291,0.703 3.687,0.389 3.725,1.119c2.267,0.539 0.152,4.05 0.792,6.364c0.299,1.076 4.284,0.411 4.038,1.45l0.482,0.061c2.518,0.315 4.636,2.083 5.395,4.504c0.762,2.412 0.036,5.074 -1.85,6.774l-4.127,3.714l1.673,1.257c1.714,1.287 2.683,3.331 2.595,5.471c-0.094,2.152 -1.234,4.107 -3.052,5.243l-2.283,1.426c0.476,1.433 0.451,3.017 -0.114,4.447c-0.842,2.123 -2.68,3.621 -4.919,4.014l-14.33,2.529c-4.579,6.265 -11.962,10.07 -19.797,10.07z" fill="#000000" stroke="none" stroke-width="1" stroke-linecap="butt" stroke-linejoin="miter" opacity="0.35"></path>
    <path d="M51.5,95.5c-7.225,0 -14.025,-3.188 -18.65,-8.638l-15.71,-0.873c-2.267,-0.125 -4.267,-1.392 -5.351,-3.386c-1.084,-1.989 -1.06,-4.357 0.067,-6.329l0.066,-0.116l-1.479,-0.493c-2.657,-0.885 -4.443,-3.363 -4.443,-6.165c0,-2.617 2.181,-5.002 4.523,-7.135c-3.487,-2.732 -5.401,-3.482 -5.663,-3.577c-2.213,-0.587 -3.96,-2.287 -4.595,-4.485c-0.655,-2.285 -0.026,-4.733 1.64,-6.399c4.974,-4.974 10.061,-7.85 16.723,-8.4c-3.903,-5.051 -8.855,-8.679 -8.927,-8.73c-1.906,-1.363 -2.931,-3.678 -2.655,-6.028c0.274,-2.349 1.805,-4.365 3.993,-5.261c5.221,-2.135 10.244,-3.217 14.932,-3.217c3.747,0 6.989,0.667 9.768,1.707c-0.227,-0.864 -0.395,-1.389 -0.416,-1.457c-0.779,-2.338 -0.12,-4.991 1.693,-6.719c1.209,-1.157 2.804,-1.797 4.485,-1.797c0.804,0 1.591,0.147 2.341,0.437c0.6,0.23 14.236,5.634 19.093,21.108c2.13,0.921 4.672,2.317 6.967,4.365c2.61,-1.078 6.088,-1.91 10.6,-1.91c2.638,0 4.994,1.574 6.005,4.011c0.291,0.703 0.452,1.435 0.49,2.165c2.267,0.539 4.13,2.278 4.77,4.592c0.299,1.076 0.306,2.183 0.06,3.223l0.482,0.061c2.518,0.315 4.636,2.083 5.395,4.504c0.762,2.412 0.036,5.074 -1.85,6.774l-4.127,3.714l1.673,1.254c1.714,1.287 2.683,3.331 2.595,5.471c-0.094,2.152 -1.234,4.107 -3.052,5.243l-2.283,1.426c0.476,1.433 0.451,3.017 -0.114,4.447c-0.842,2.123 -2.68,3.621 -4.919,4.014l-14.33,2.529c-4.579,6.265 -11.962,10.07 -19.797,10.07z" fill="#f2f2f2" stroke="none" stroke-width="1" stroke-linecap="butt" stroke-linejoin="miter"></path>
    <path d="M81.5,61.5l10,-9l-16,-2l10,-6h-11l6,-6c-9,0 -12,4 -12,4c-3,-6 -11,-8 -11,-8c-3,-15 -16,-20 -16,-20c0,0 3,9 2,18c0,0 -8,-16 -30,-7c0,0 14,10 16,22c0,0 -12,-6 -23,5c0,0 4,1 14,11c0,0 -8,3 -8,6l9,3l-4,7l18,1l0.718,-0.022c3.175,5.109 8.823,8.522 15.282,8.522c6.864,0 12.828,-3.844 15.864,-9.496l0.136,-0.004l17,-3l-3,-4l8,-5z" fill="#707cc0" stroke="none" stroke-width="1" stroke-linecap="butt" stroke-linejoin="miter"></path>
    <path d="M42.5,49.5c0,0 0,7 2,12c0,0 5.5,-7.5 13.5,-11.5l-2,12c0,0 4,-2 10,-7l-0.393,13.303c0,0 5.326,-4.303 10.393,-4.303c3,0 2,13 -9,14l-3,7l-11.775,4.202l-7.225,-2.202l-8.782,-6.522l0.586,-1.388c-10.366,-0.304 -13.804,-15.09 -9.804,-15.09c4,0 10.225,3.764 10.225,3.764c0,0 -4.225,-12.764 5.275,-18.264z" fill="#ffe8d9" stroke="none" stroke-width="1" stroke-linecap="butt" stroke-linejoin="miter"></path>
    <path d="M36.348,62.847l11.326,6.973c0,0 -0.303,4.719 -4.989,4.517c-6.129,-0.265 -6.337,-11.49 -6.337,-11.49z" fill="#ffffff" stroke="none" stroke-width="1" stroke-linecap="butt" stroke-linejoin="miter"></path>
    <path d="M36.854,62.253l11.224,6.472" fill="none" stroke="#40396e" stroke-width="3" stroke-linecap="round" stroke-linejoin="miter"></path>
    <ellipse cx="43.5" cy="69.5" rx="1.5" ry="2.5" fill="#40396e" stroke="none" stroke-width="1" stroke-linecap="butt" stroke-linejoin="miter"></ellipse>
    <path d="M65.651,62.847l-11.325,6.973c0,0 0.303,4.719 4.989,4.517c6.129,-0.265 6.336,-11.49 6.336,-11.49z" fill="#ffffff" stroke="none" stroke-width="1" stroke-linecap="butt" stroke-linejoin="miter"></path>
    <path d="M65.146,62.253l-11.225,6.472" fill="none" stroke="#40396e" stroke-width="3" stroke-linecap="round" stroke-linejoin="miter"></path>
    <ellipse cx="58.5" cy="69.5" rx="1.5" ry="2.5" fill="#40396e" stroke="none" stroke-width="1" stroke-linecap="butt" stroke-linejoin="miter"></ellipse>
    <path d="M54.328,79.328c-0.724,0.724 -1.724,1.172 -2.828,1.172c-1.105,0 -2.105,-0.448 -2.828,-1.172" fill="none" stroke="#40396e" stroke-width="3" stroke-linecap="round" stroke-linejoin="miter"></path>
    <g fill="#d47f56" stroke="none" stroke-width="1" stroke-linecap="butt" stroke-linejoin="miter" opacity="0.35">
        <path d="M76,64c-1.802,0 -3.632,0.547 -5.248,1.249c-0.369,5.972 -4.892,13.841 -4.892,13.841l0.711,-0.088l0.429,-1.002c11,-1 12,-14 9,-14z"></path>
        <path d="M27,64c-3.738,0 -0.978,12.91 7.858,14.849l1.945,0.241c0,0 -4.569,-7.948 -4.897,-13.931c-1.656,-0.647 -3.432,-1.159 -4.906,-1.159z"></path>
    </g>
    <path d="M81.5,61.5l10,-9l-16,-2l10,-6h-11l6,-6c-9,0 -12,4 -12,4c-3,-6 -11,-8 -11,-8c-3,-15 -16,-20 -16,-20c0,0 3,9 2,18c0,0 -8,-16 -30,-7c0,0 14,10 16,22c0,0 -12,-6 -23,5c0,0 4,1 14,11c0,0 -8,3 -8,6l9,3l-4,7l18,1l0.718,-0.022c3.175,5.109 8.823,8.522 15.282,8.522c6.864,0 12.828,-3.844 15.864,-9.496l0.136,-0.004l17,-3l-3,-4l8,-5z" fill="none" stroke="#40396e" stroke-width="3" stroke-linecap="round" stroke-linejoin="round"></path>
    </g>
</g>
</svg>